<svg width="51.901" height="77.301" viewBox="0 0 51.901 77.301" xmlns="http://www.w3.org/2000/svg"><g id="svgGroup" stroke-linecap="round" fill-rule="evenodd" font-size="9pt" stroke="#000" stroke-width="0" fill="#ffffff" style="stroke:#000;stroke-width:0;fill:#ffffff"><path d="M 21.1 77.301 Q 14.8 77.301 10 75.101 Q 5.2 72.901 2.6 68.951 Q 0 65.001 0 59.801 Q 0 55.401 1.85 51.801 Q 3.7 48.201 6.85 46.101 Q 10 44.001 13.8 44.001 Q 17.3 44.001 19.7 45.751 Q 22.1 47.501 22.7 50.601 Q 17.5 50.601 14.4 53.351 Q 11.3 56.101 11.3 60.801 Q 11.3 65.101 13.9 67.701 Q 16.5 70.301 20.8 70.301 Q 26.1 70.301 29.55 66.751 Q 33 63.201 33 57.801 Q 33 53.101 30.4 48.901 Q 27.8 44.701 22.6 38.701 Q 17.2 32.501 14.45 28.051 Q 11.7 23.601 11.7 18.301 Q 11.7 13.101 14.6 8.951 Q 17.5 4.801 22.6 2.401 Q 27.7 0.001 34.1 0.001 Q 42.2 0.001 47.05 3.801 Q 51.9 7.601 51.9 14.001 Q 51.9 18.201 49.8 20.801 Q 47.7 23.401 44.3 23.401 Q 40.5 23.401 38.2 20.301 Q 40.1 18.901 41.2 16.601 Q 42.3 14.301 42.3 11.801 Q 42.3 8.601 40.4 6.701 Q 38.5 4.801 35.2 4.801 Q 31.2 4.801 28.65 7.651 Q 26.1 10.501 26.1 14.901 Q 26.1 18.901 28.4 22.351 Q 30.7 25.801 35.6 31.201 Q 39.6 35.501 42.05 38.601 Q 44.5 41.701 46.25 45.751 Q 48 49.801 48 54.501 Q 48 60.901 44.45 66.101 Q 40.9 71.301 34.75 74.301 Q 28.6 77.301 21.1 77.301 Z" vector-effect="non-scaling-stroke"/></g></svg>