<?xml version="1.0" encoding="utf-8"?>
<svg id="svg2" viewBox="62.618 168.953 367.172 345.881" xmlns="http://www.w3.org/2000/svg" xmlns:bx="https://boxy-svg.com" width="367.172px" height="345.881px"><desc>Source: openclipart.org/detail/209545</desc><defs><bx:export><bx:file format="svg"/></bx:export></defs><g transform="matrix(4.119859, 0, 0, 4.119859, -745.347839, -427.118408)" style=""><g data-paper-data="{&quot;isPaintingLayer&quot;:true}" fill-rule="nonzero" stroke-linejoin="miter" stroke-miterlimit="10" stroke-dasharray="" stroke-dashoffset="0" style="mix-blend-mode: normal"><path d="M 229.013 169.991 C 242.658 157.568 251.916 138.71 261.508 146.519 C 259.203 148.146 256.837 150.178 254.508 152.391 C 246.563 159.942 238.135 170.299 230.681 177.125 C 222.835 184.355 211.795 191.345 203.942 198.131 C 201.541 200.205 199.347 202.364 197.645 204.527 C 189.636 192.336 214.999 182.749 229.013 169.991 Z" stroke="#000000" stroke-width="0" stroke-linecap="butt" style="fill: rgb(255, 255, 255);"/><path d="M 276.342 146.906 C 280.131 149.944 280.834 154.356 279.541 159.464 C 278.051 158.543 276.554 158.035 275.108 157.962 C 274.763 157.945 274.416 157.95 274.068 157.976 C 274.097 157.843 274.118 157.708 274.131 157.569 C 274.295 155.782 272.979 154.2 271.192 154.036 C 271.192 154.036 259.708 153.467 253.175 158.336 C 249.978 161.428 248.626 165.532 247.877 168.779 C 247.129 172.026 246.941 174.402 245.054 175.744 C 242.389 178.888 235.929 178.357 230.08 180.9 C 230.849 180.24 231.599 179.578 232.323 178.913 C 247.47 165.007 266.121 137.455 276.342 146.906 Z M 264.655 162.829 C 260.625 166.474 256.463 171.795 251.892 177.037 C 253.08 174.745 253.733 172.312 254.211 170.238 C 254.944 167.058 255.222 164.711 257.362 163.308 C 260.067 160.619 264.881 160.248 267.897 160.315 C 266.774 161.042 265.684 161.898 264.655 162.829 Z M 244.103 185.167 C 238.558 190.293 231.064 194.948 224.455 199.56 C 225.201 198.08 225.72 196.661 226.144 195.385 C 227.09 192.541 227.701 190.588 229.931 188.58 C 234.172 184.759 241.641 185.177 247.545 181.806 C 246.425 182.966 245.279 184.094 244.103 185.167 Z M 209.253 216.207 C 208.898 218.034 209.121 220.007 209.924 222.017 C 205.351 222.524 201.454 221.659 198.769 218.893 C 194.921 214.611 196.122 210.135 199.982 205.472 C 199.588 206.57 199.8 207.844 200.642 208.765 C 201.853 210.09 203.909 210.181 205.234 208.97 C 205.234 208.97 203.878 209.375 205.234 208.97 C 205.234 208.97 208.889 209.847 213.483 208.634 C 211.342 211.038 209.758 213.612 209.253 216.207 Z M 219.976 193.333 C 219.034 196.165 218.512 198.347 216.033 200.339 C 211.95 204.831 202.737 204.324 201.099 204.195 C 201.141 204.15 201.182 204.106 201.224 204.061 C 206.451 198.44 215.139 192.552 223.202 186.41 C 221.492 188.798 220.659 191.283 219.976 193.333 Z" stroke-linecap="butt" style="stroke-linejoin: round; paint-order: stroke; stroke-width: 4.85453px; fill: rgb(255, 255, 255);"/><path d="M270.89499,157.27213c0,0 -10.28859,-0.94411 -15.62635,3.55018c-5.33776,4.4943 -3.25907,12.90087 -8.00419,17.30403c-4.74512,4.40316 -13.84956,2.94032 -19.50901,8.03866c-5.65945,5.09834 -3.68449,11.22851 -9.52972,16.57294c-5.84522,5.34443 -15.18508,3.8338 -15.18508,3.8338" stroke-width="6.5" stroke-linecap="round" style="fill-rule: nonzero; stroke-linejoin: round;" fill="none"/><path d="M283.59266,167.07057c7.17292,11.19418 -10.68907,26.26288 -23.24776,38.49797c-12.55869,12.23509 -36.41232,27.85784 -43.60974,21.66898c-17.48649,-15.03613 12.97531,-25.56188 29.00911,-40.28236c16.0338,-14.72048 26.12029,-38.18768 37.84839,-19.8846z" stroke-linecap="butt" style="paint-order: stroke; stroke-width: 4.85453px; fill: rgb(255, 255, 255);"/></g></g></svg>